<?xml version="1.0" encoding="UTF-8"?><svg id="Capa_2" xmlns="http://www.w3.org/2000/svg" viewBox="0 0 302.11 288.37"><defs><style>.cls-1{fill:#82572c;}.cls-2{fill:#a07343;}.cls-3{fill:#327542;}.cls-4{fill:#50974b;}.cls-5{fill:#479349;}</style></defs><g id="Capa_1-2"><path class="cls-3" d="M147.42,248.84c1.49,10.49,3.02,20.98,4.45,31.49.37,2.74.69,5.74-2.23,7.4-2.89,1.65-5.35-.22-7.6-1.72-14.67-9.87-24.78-23.34-31.08-39.77-1.81-4.73-3.56-9.48-5.33-14.22-.34-17.86-.56-35.68,4.86-53.04.92-2.96,1.46-6.83-1.66-8.85-3.39-2.19-7.07-1.26-10.08,1.51-7.02,6.45-16.21,10.55-20.98,19.42-8.71,2.19-15.12,6.47-19.54,15.1-3.94,7.69-10.42,14.16-16.15,20.84-4.31,5.03-7.98,4.22-9.66-2.17-3.53-13.41-2.14-26.8,2.03-39.78,6.61-20.56,18.52-37.37,37.41-48.44,6.43-3.77,10.65-8.47,12.24-17.57-10.21.46-19.3-2.58-28.82-3.19-3.61-.23-7.65.42-10.13-3.25-1.78-2.62-3.44-1.43-5.72-.59-10.19,3.78-21.03,2.78-31.6,3.74-2.57.23-5.81.97-7.32-2.28-1.39-3,.54-5.36,2.23-7.53,14.3-18.44,32.58-29.92,56.16-32.39,5.36-.56,11.04.72,16.72-2.35-3.19-6.43-9.56-8.96-14.11-13.3-2.36-2.25-5.4-4.3-3.97-8.03,1.09-2.86,4.11-3.42,6.98-3.74,22.43-2.53,43.48,0,61.41,15.58,11.51,9.99,11.53,9.73,15.81-4.33C152.93,20.47,176.05,4.32,213.81.17c1.83-.2,3.73-.26,5.54.02,5.67.89,6.98,4.19,3.09,8.57-6.46,7.27-13.11,14.39-19.99,21.27-2.56,2.55-6.3,3.75-3.1,8.58,2.22,3.36-1.43,5.88-2.83,8.65-3.53,7.03-6.73,14.25-10.68,21.04-2.8,4.81-.54,6.7,3.34,8.28,5.73,2.33,10.8-.61,16.14-1.99,34.78-8.98,65.21-2.08,89.86,25.2,1.55,1.72,3.04,3.51,4.45,5.35,1.41,1.82,3.16,3.89,2.2,6.21-1.29,3.12-4.38,3.12-7.18,2.54-11.67-2.43-24.16,2.02-35.39-4.18-.67-.37-2.12-.69-2.27-.45-6.31,10.12-18.68,3.12-26.31,9.37-4.11.01-8.23,0-12.34.06-2.86.04-5.68.5-6.29,3.89-.57,3.19,1.58,5.13,4.08,6.45,7.64,4.03,15.35,7.93,23.04,11.88,2.42,4.54,6.27,7.88,9.67,11.62,18.29,20.11,23.48,44.16,20.92,70.49-.27,2.78-.75,5.72-3.77,6.76-3.2,1.11-5.41-1.17-6.77-3.5-5.95-10.2-17.67-16.3-20.41-28.71-3.16-4.87-7.33,1.21-10.74-.95-2.01-4.99-7.18-5.91-11-8.56-.38-5.29-4.6-7.53-7.97-10.71-9.29-8.8-22.07-11.23-32.27-18.52-15.49-11.07-13.79-8.05-17.83,8.54-.86,3.53-.22,7.39-.51,11.09-.25,3.2.07,6.94-1.45,9.48-8.03,13.42-4.58,28.24-5.85,42.47-.12,3.51-.25,7.01-.37,10.52-1.43,2.52-3.41,4.81-3.41,7.94ZM140.86,274.07c1.83-9.82.33-16.67-4.43-23.01-2.19-2.91-4.04-6.26-5.23-9.69-1.07-3.1-.98-7.26,3.15-7.89,8.07-1.25,7.52-6.92,7.29-12.49-.36-8.59,2.12-17.5-4.01-25.42-2.65-3.42-.57-9.18,3.1-8.67,12.59,1.78,9.1-6.86,9.35-12.94.31-7.39.24-14.81.04-22.21-.09-3.49,1.5-8.1-2.9-9.85-4.9-1.95-7.32,2.68-10.24,5.41-1.33,1.24-2.3,2.88-3.35,4.39-14.83,21.3-21.16,45.27-19.34,70.77,1.4,19.66,8.54,37.54,26.58,51.6ZM140.32,131.23c-54.54-10.54-103.27,32.41-100.06,80.68,8.45-6.23,14.35-12.83,15.36-23.66.81-8.64,3.7-9.9,12.69-7.98,1.91.41,3.66,1.17,4.99-.47,6.56-8.11,18.7-10.58,21.79-22.43,1.29-4.94,5.64-6.58,9.26-1.63,2.93,4.01,5.16,3.86,9.06,1.33,10.52-6.84,18.52-15.99,26.92-25.84ZM260.57,209.3c-.52-57.52-59.26-90.83-104-76.64,9.3,8.91,20.58,14.46,30.2,22.2,2.59,2.08,5.73,2.99,8.85.25,5.28-4.63,8.8-1.59,10.5,3.4,3.63,10.67,14.43,14,21.06,21.54,1.27,1.44,3.29,2.37,5.03,1.6,10.77-4.83,12.91,3.25,15.25,10.33,2.24,6.8,5.38,12.66,13.11,17.31ZM163.2,118.58c9.09,0,17.72-.09,26.35.03,5.4.08,9.83-.16,11.3-7.12,1.18-5.57,6.98-5.03,10.36-3.38,9.05,4.43,17.25-1.52,25.88-1.02,3.37.19,4.51-2.58,4.93-5.61,1.17-8.49,6.42-7.27,12.31-5.35,3.21,1.04,5.64,3.11,8.39,4.78,6.92,4.21,14.09,5.01,22.25,2.14-40-41.95-109.24-19.89-121.77,15.53ZM19.86,103.06c11.3,3.99,18.38-1.13,25.82-4.67,4.61-2.19,10.32-3.32,11.16,2.74.82,5.96,3.62,5.76,7.83,6.71,8.65,1.95,17.01,3.82,25.8.44,4.12-1.58,8.35-1.38,9.48,4.54,1.5,7.83,7.82,9.16,13.81,8.13,7.58-1.3,15.25-2.17,24.72-3.17-12.72-22.53-33.13-31.36-54.9-34.66-22.92-3.48-45.92-.94-63.71,19.95ZM202.38,15.18c-2.39-2.23-4.32-2.71-6.07-2.19-18.1,5.41-32.46,16.27-41.42,32.66-10.21,18.68-8.5,39.41-6.76,59.78.17,2.02,1.05,4.51,4.5,5.77,7.65-5.43,11.74-14.64,18.46-21.42,1.65-1.66,1.56-4.59-.43-6.32-6.45-5.61-3.11-10.28,2.02-13.33,8.32-4.96,7.8-14.35,12.08-21.26,1.09-1.75.26-3.34-.81-5.04-7.19-11.34-7.25-11.81,5.2-16.69,5.96-2.34,10.37-5.52,13.24-11.97ZM138.04,100.65c-5.62-31.46-35.89-51.66-61.22-43.66,17.87,16.76,40.83,25.74,61.22,43.66Z"/><path class="cls-1" d="M77.75,191.05c4.77-8.87,13.96-12.98,20.98-19.42,3.01-2.77,6.69-3.7,10.08-1.51,3.13,2.02,2.59,5.89,1.66,8.85-5.41,17.36-5.19,35.19-4.86,53.04-15.71-9.29-23.1-24.23-27.87-40.96Z"/><path class="cls-1" d="M147.42,248.84c0-3.13,1.98-5.42,3.4-7.94,35.19,1.7,62.91-9.63,77.24-44.31,3.42,2.16,7.59-3.92,10.74.95-4.12-.06-5.22,3.19-6.67,6.07-17.68,34.86-46.73,48.42-84.72,45.23Z"/><path class="cls-2" d="M239.17,140.89c-7.68-3.95-15.4-7.85-23.04-11.88-2.5-1.32-4.66-3.26-4.08-6.45.61-3.39,3.43-3.85,6.29-3.89,4.11-.05,8.23-.04,12.34-.06,3.09,7.33,8.05,13.94,8.48,22.28Z"/><path class="cls-1" d="M151.19,230.38c1.27-14.23-2.19-29.05,5.85-42.47,1.52-2.54,1.2-6.27,1.45-9.48.29-3.69-.35-7.56.51-11.09,4.04-16.58,2.34-19.61,17.83-8.54,10.2,7.29,22.97,9.72,32.27,18.52,3.36,3.18,7.59,5.42,7.96,10.71-.69,5.78-3.67,10.32-7.47,14.57-15.6,17.44-34.81,27.19-58.4,27.77Z"/><path class="cls-4" d="M140.86,274.07c-18.04-14.07-25.18-31.94-26.58-51.6-1.82-25.5,4.52-49.47,19.34-70.77,1.05-1.51,2.02-3.15,3.35-4.39,2.92-2.72,5.34-7.35,10.24-5.41,4.4,1.75,2.81,6.36,2.9,9.85.2,7.4.27,14.82-.04,22.21-.26,6.07,3.24,14.71-9.35,12.94-3.66-.52-5.75,5.24-3.1,8.67,6.14,7.93,3.65,16.84,4.01,25.42.24,5.56.78,11.24-7.29,12.49-4.12.64-4.22,4.8-3.15,7.89,1.19,3.43,3.04,6.78,5.23,9.69,4.76,6.34,6.25,13.19,4.43,23.01Z"/><path class="cls-4" d="M140.32,131.23c-8.4,9.85-16.4,19-26.92,25.84-3.9,2.53-6.13,2.68-9.06-1.33-3.62-4.95-7.97-3.31-9.26,1.63-3.09,11.85-15.23,14.32-21.79,22.43-1.33,1.64-3.08.88-4.99.47-8.99-1.93-11.88-.66-12.69,7.98-1.01,10.83-6.91,17.43-15.36,23.66-3.21-48.27,45.53-91.23,100.06-80.68Z"/><path class="cls-4" d="M260.57,209.3c-7.74-4.65-10.87-10.51-13.11-17.31-2.33-7.08-4.48-15.16-15.25-10.33-1.73.78-3.76-.15-5.03-1.6-6.63-7.54-17.43-10.86-21.06-21.54-1.7-5-5.21-8.04-10.5-3.4-3.12,2.73-6.26,1.83-8.85-.25-9.62-7.75-20.91-13.3-30.2-22.2,44.74-14.19,103.48,19.12,104,76.64Z"/><path class="cls-4" d="M163.2,118.58c12.53-35.41,81.77-57.47,121.77-15.53-8.15,2.87-15.33,2.07-22.25-2.14-2.75-1.68-5.18-3.74-8.39-4.78-5.89-1.92-11.14-3.14-12.31,5.35-.42,3.03-1.56,5.8-4.93,5.61-8.63-.5-16.83,5.45-25.88,1.02-3.38-1.65-9.18-2.19-10.36,3.38-1.47,6.96-5.91,7.2-11.3,7.12-8.63-.13-17.26-.03-26.35-.03Z"/><path class="cls-4" d="M19.86,103.06c17.79-20.89,40.79-23.43,63.71-19.95,21.78,3.31,42.18,12.14,54.9,34.66-9.48,1-17.14,1.86-24.72,3.17-5.99,1.03-12.3-.3-13.81-8.13-1.13-5.91-5.36-6.12-9.48-4.54-8.79,3.38-17.15,1.51-25.8-.44-4.21-.95-7-.74-7.83-6.71-.84-6.06-6.55-4.93-11.16-2.74-7.44,3.54-14.52,8.65-25.82,4.67Z"/><path class="cls-4" d="M202.38,15.18c-2.86,6.45-7.28,9.64-13.24,11.97-12.44,4.88-12.38,5.34-5.2,16.69,1.07,1.69,1.9,3.29.81,5.04-4.29,6.9-3.76,16.3-12.08,21.26-5.13,3.05-8.47,7.72-2.02,13.33,1.99,1.73,2.08,4.66.43,6.32-6.72,6.78-10.81,15.99-18.46,21.42-3.45-1.26-4.33-3.75-4.5-5.77-1.74-20.37-3.46-41.1,6.76-59.78,8.96-16.39,23.32-27.25,41.42-32.66,1.75-.52,3.68-.04,6.07,2.19Z"/><path class="cls-2" d="M151.19,230.38c23.59-.58,42.8-10.32,58.4-27.77,3.8-4.25,6.78-8.79,7.47-14.57,3.82,2.65,8.99,3.57,11,8.55-14.33,34.68-42.05,46.01-77.24,44.3.13-3.51.25-7.01.37-10.52Z"/><path class="cls-5" d="M138.04,100.65c-20.39-17.92-43.35-26.9-61.22-43.66,25.34-8,55.6,12.2,61.22,43.66Z"/></g></svg>