<?xml version="1.0" encoding="UTF-8"?><svg id="Capa_2" xmlns="http://www.w3.org/2000/svg" viewBox="0 0 374.63 136.35"><defs><style>.cls-1{fill:#b3b4b6;stroke:#130000;}.cls-1,.cls-2,.cls-3{stroke-miterlimit:10;stroke-width:4px;}.cls-2{fill:#479349;stroke:#136500;}.cls-3{fill:#80756a;stroke:#000;}</style></defs><g id="Capa_1-2"><rect class="cls-1" x="2" y="2" width="370.63" height="132.35" rx="17.3" ry="17.3"/><rect class="cls-3" x="13.9" y="12.22" width="347.07" height="110" rx="9.12" ry="9.12"/><path class="cls-2" d="M187.81,50.19c5.98-2.03,11.38-.9,16.39,2.08,6.92,4.11,7.03,9.4.35,13.9-3.37,2.27-6.99,3.54-11.19,3.45-7.98-.16-8.16.08-6.02,8.38.95,3.66,1.31,7.01-.07,10.63-2.21,5.82-5.59,7.3-10.95,4.46-2.36-1.25-4.1-3.17-5.64-5.33-.83-1.17-1.53-2.45-2.46-3.52-2.94-3.4-3.59-3.52-6.7-.4-2.72,2.73-5.45,5.17-9.22,6.3-5.53,1.65-8.92-.3-10.01-6.21-.37-2.01.62-5.16-2.26-5.34-3.88-.24-8.11-4.18-11.72.48-3.6,4.65-8.48,6.62-13.87,7.64-2.55.49-5.06.43-7.57-.52-3.88-1.47-4.44-2.41-3.12-6.38.38-1.14,1.08-2.17,1.46-3.31.95-2.81.12-4.55-2.86-3.5-2.47.87-3.34-.54-4.49-2.12-3.08-4.22-7.16-6.83-12.1-8.12-2.09-.55-3.96-.33-4.57,1.92-.55,2.04,1.12,2.97,2.82,3.41,5.11,1.31,8.44,5.13,11.35,9.23,3.37,4.74,1.95,8.32-3.65,9.45-3.17.64-6.5.74-9.68-.46-1.97-.75-4.03-1.34-5.85-2.37-2.56-1.45-3.95-.48-4.78,2.02-.99,2.99-1.87,5.99-4.07,8.36-3.52,3.8-5.6,3.86-9.52.4-3.88-3.42-6.34-7.67-7.59-12.78-1.65-6.73-1.63-6.57-7.32-3.78-5.85,2.87-11.87,4.06-18.13.99-4.5-2.21-5.01-3.55-2.87-8.49,1.49-3.44,3.69-5.98,6.95-7.83,5.06-2.88,5.05-3.52,1.82-8.14-.82-1.17-1.65-2.35-2.32-3.61-3.55-6.72-1.45-11.16,5.94-12.06,4.17-.5,8.4-.44,12.37,1.44,3.29,1.56,4.53.55,4.65-3.27.13-4.1.98-8.22,2.98-11.85,3.24-5.9,7.39-6.3,11.34-.93,2.24,3.04,4.49,6.17,5.42,10.11.42,1.78.68,3.82,2.54,5.45,2.51-.64,3.88-3.08,5.67-4.83,1.72-1.67,3.4-3.32,5.63-4.23,5.88-2.39,9.55-.46,10.99,5.84,1.72,7.51,2.66,8.02,9.04,4.15,5.94-3.61,11.68-3.86,17.67-.08,5.05,3.18,5.25,3.06,7.07-2.6.63-1.97,1.6-3.59,3.11-4.69,3.37-2.45,7.7-2.98,10.93-5.96,1.13-1.04,3.11-.06,4.64.68,4.45,2.16,8.71,4.49,12.14,8.38,3.65,4.14,3.8,3.92,8.54.76,2.54-1.7,5.08-3.5,7.84-4.72,5.87-2.61,9.42-.27,10.14,6.42.36,3.35-.49,6.77.81,11.11Z"/><path class="cls-2" d="M229.03,73.02c9.86-4.61,31.02,6.59,16.74,15.97-6.36,7.01-23.06-2.43-17.21,11.83.85,38.67-18.54-1.63-25.82,5.83-22.05,22.57-15.07-16.56-33.21-4.76-4.06,7.21-26.98,13.43-24.57.75,1.29-2.45,3.85-8.55-1.4-6.81-6.39.13-14.16-16.73-21.16-8.32,1.74,5.51,11.86,5.69,14.17,12.64,8.41,19.25-20.69,2.24-23.95,8.64-3.27,17.87-18.9,9.67-21.18-4.03-1.65-6.73-1.63-6.57-7.32-3.78-13.42,8.89-32.33-4.28-14.05-15.33,11.71-4.83-14.24-21.62,5.44-23.81,5.51-3.15,16.68,7.02,17.02-1.84-.59-18.46,15.56-21.03,19.74-2.67.59,6.87,4.99,5.46,8.21.62,17.51-18.7,13.24,15.03,25.65,5.77,8.51-9.78,21.81,8.64,24.74-2.69,18.08-26.14,26.97,5.72,39.36-.83,13.59-11.89,19.46-2.42,18.8,12.81Z"/><path class="cls-2" d="M331.45,66.4c2.58,1.97,6.3,1.41,9.31,2.35,13.83,4.31,12.43,15.25-.56,19.07-2.6.73-5.38.81-7.95,1.54-5.48,1.66-2.32,8.32-2.52,12.42.46,6.53-3.88,14.66-11.24,10.71-3.67-1.74-5.97-5.63-9.03-8.15-2.93-2.52-6.42-.43-8.98,1.58-2.79,2.11-6.63,4.2-10.03,3.76-5.2-.44-5.88-6.68-8.89-9.83-1.93-2.23-5.2-3.03-8.06-2.27-3.99.84-7.41,4.59-11.32,6.49-4.43,2.12-10.56,3.48-14.86.56-3.41-2.49-1.08-7.23-2.82-10.46-1.26-2.25-4.76-3.62-7.63-6.03-3.06-2.54-6.84-5.85-11.03-5.3-5.49,1.62,2.61,6.34,4.48,7.88,6.5,4.91,10.06,14.26-.13,15.71-5.03,1.09-10.3-2.52-14.99-1.62-5.35,1.72-5.77,10.76-12.06,11.19-4.25.34-8.49-4.9-10.53-9.26-2-3.8-2.84-11.17-8.7-9.24-6.28,2.21-13.8,4.39-19.7.06-4.76-3.83-1.42-10.01,2.46-13.73,2.49-2.35,5.63-5.12,4.39-8.8-.98-3.32-3.21-6.56-3.42-10.01-.59-5.81,5.81-7.95,10.57-7.87,3.88-.06,7.96,1.48,10.44.29.57-.25,1.04-.62,1.45-1.09,1.91-2.15,2.04-6.94,3.69-10.63,1.41-3.7,5.19-8.15,9.41-5.57,2.86,1.69,4.82,4.74,6.3,7.66,2.06,4.08,3.35,9.22,7.83,7.08,2.82-1.49,5.26-4.32,8.31-5.47,6.2-2.58,9.25,1.26,11.52,6.55,1.26,2.99,3.42,5.01,7.02,3.63,4.43-1.6,9.19-3.84,13.87-2.61,3.17.48,6.53,3,9.71,2.23,2.21-.71,3.43-3.29,4.84-5.04,3.31-4.25,9.17-7.81,14.48-8.04,2.63-.06,5.28,1.03,7.78,2.65,4.65,2.43,8.44,9.06,14.3,7.02,4.65-1.72,9.32-6.35,14.54-5.18,6.89,1.98,3.62,11.93,7.63,15.65l.11.09Z"/><path class="cls-2" d="M328.81,43.09c5.98-2.03,11.38-.9,16.39,2.08,6.92,4.11,7.03,9.4.35,13.9-3.37,2.27-6.99,3.54-11.19,3.45-7.98-.16-8.16.08-6.02,8.38.95,3.66,1.31,7.01-.07,10.63-2.21,5.82-5.59,7.3-10.95,4.46-2.36-1.25-4.1-3.17-5.64-5.33-.83-1.17-1.53-2.45-2.46-3.52-2.94-3.4-3.59-3.52-6.7-.4-2.72,2.73-5.45,5.17-9.22,6.3-5.53,1.65-8.92-.3-10.01-6.21-.37-2.01.62-5.16-2.26-5.34-3.88-.24-8.11-4.18-11.72.48-3.6,4.65-8.48,6.62-13.87,7.64-2.55.49-5.06.43-7.57-.52-3.88-1.47-4.44-2.41-3.12-6.38.38-1.14,1.08-2.17,1.46-3.31.95-2.81.12-4.55-2.86-3.5-2.47.87-3.34-.54-4.49-2.12-3.08-4.22-7.16-6.83-12.1-8.12-2.09-.55-3.96-.33-4.57,1.92-.55,2.04,1.12,2.97,2.82,3.41,5.11,1.31,8.44,5.13,11.35,9.23,3.37,4.74,1.95,8.32-3.65,9.45-3.17.64-6.5.74-9.68-.46-1.97-.75-4.03-1.34-5.85-2.37-2.56-1.45-3.95-.48-4.78,2.02-.99,2.99-1.87,5.99-4.07,8.36-3.52,3.8-5.6,3.86-9.52.4-3.88-3.42-6.34-7.67-7.59-12.78-1.65-6.73-1.63-6.57-7.32-3.78-5.85,2.87-11.87,4.06-18.13.99-4.5-2.21-5.01-3.55-2.87-8.49,1.49-3.44,3.69-5.98,6.95-7.83,5.06-2.88,5.05-3.52,1.82-8.14-.82-1.17-1.65-2.35-2.32-3.61-3.55-6.72-1.45-11.16,5.94-12.06,4.17-.5,8.4-.44,12.37,1.44,3.29,1.56,4.53.55,4.65-3.27.13-4.1.98-8.22,2.98-11.85,3.24-5.9,7.39-6.3,11.34-.93,2.24,3.04,4.49,6.17,5.42,10.11.42,1.78.68,3.82,2.54,5.45,2.51-.64,3.88-3.08,5.67-4.83,1.72-1.67,3.4-3.32,5.63-4.23,5.88-2.39,9.55-.46,10.99,5.84,1.72,7.51,2.66,8.02,9.04,4.15,5.94-3.61,11.68-3.86,17.67-.08,5.05,3.18,5.25,3.06,7.07-2.6.63-1.97,1.6-3.59,3.11-4.69,3.37-2.45,7.7-2.98,10.93-5.96,1.13-1.04,3.11-.06,4.64.68,4.45,2.16,8.71,4.49,12.14,8.38,3.65,4.14,3.8,3.92,8.54.76,2.54-1.7,5.08-3.5,7.84-4.72,5.87-2.61,9.42-.27,10.14,6.42.36,3.35-.49,6.77.81,11.11Z"/></g></svg>