<?xml version="1.0" encoding="UTF-8"?><svg id="Capa_2" xmlns="http://www.w3.org/2000/svg" viewBox="0 0 374.63 136.35"><defs><style>.cls-1{fill:#b3b4b6;stroke:#130000;}.cls-1,.cls-2,.cls-3{stroke-miterlimit:10;stroke-width:4px;}.cls-2{fill:#529553;stroke:#136500;}.cls-3{fill:#80756a;stroke:#000;}</style></defs><g id="Capa_1-2"><rect class="cls-1" x="2" y="2" width="370.63" height="132.35" rx="17.3" ry="17.3"/><rect class="cls-3" x="13.9" y="12.22" width="347.07" height="110" rx="9.12" ry="9.12"/><rect class="cls-2" x="29.84" y="39.09" width="64.78" height="67.39" rx="32.39" ry="32.39"/><rect class="cls-2" x="37.32" y="46.87" width="49.83" height="51.84" rx="24.92" ry="24.92"/><rect class="cls-2" x="44.79" y="54.64" width="34.88" height="36.29" rx="17.44" ry="17.44"/><rect class="cls-2" x="52.26" y="62.42" width="19.93" height="20.74" rx="9.97" ry="9.97"/><rect class="cls-2" x="80.69" y="22.89" width="81.49" height="85" rx="40.75" ry="40.75"/><rect class="cls-2" x="90.09" y="32.7" width="62.69" height="65.38" rx="31.34" ry="31.34"/><rect class="cls-2" x="99.49" y="42.51" width="43.88" height="45.77" rx="21.94" ry="21.94"/><rect class="cls-2" x="108.9" y="52.31" width="25.07" height="26.15" rx="12.54" ry="12.54"/><rect class="cls-2" x="148.64" y="35.31" width="66.38" height="65.38" rx="32.69" ry="32.69"/><rect class="cls-2" x="156.3" y="42.86" width="51.06" height="50.3" rx="25.15" ry="25.15"/><rect class="cls-2" x="163.96" y="50.4" width="35.74" height="35.21" rx="17.6" ry="17.6"/><rect class="cls-2" x="171.62" y="57.94" width="20.42" height="20.12" rx="10.06" ry="10.06"/><rect class="cls-2" x="209.48" y="22.89" width="81.49" height="85" rx="40.75" ry="40.75"/><rect class="cls-2" x="218.88" y="32.7" width="62.69" height="65.38" rx="31.34" ry="31.34"/><rect class="cls-2" x="228.28" y="42.51" width="43.88" height="45.77" rx="21.94" ry="21.94"/><rect class="cls-2" x="237.69" y="52.31" width="25.07" height="26.15" rx="12.54" ry="12.54"/><rect class="cls-2" x="277.43" y="35.31" width="66.38" height="65.38" rx="32.69" ry="32.69"/><rect class="cls-2" x="285.09" y="42.86" width="51.06" height="50.3" rx="25.15" ry="25.15"/><rect class="cls-2" x="292.75" y="50.4" width="35.74" height="35.21" rx="17.6" ry="17.6"/><rect class="cls-2" x="300.41" y="57.94" width="20.42" height="20.12" rx="10.06" ry="10.06"/></g></svg>