<?xml version="1.0" encoding="UTF-8"?><svg id="Capa_2" xmlns="http://www.w3.org/2000/svg" viewBox="0 0 1104.79 464.78"><defs><style>.cls-1{fill:var(--mesa-fill,#e8e4de);stroke:#000;stroke-width:5px;}.cls-1,.cls-2{stroke-miterlimit:10;}.cls-3{fill:#2b2b2b;}.cls-2{fill:var(--silla-fill,#707378);stroke:#2b2b2b;stroke-width:6px;}</style></defs><g id="Capa_1-2"><path class="cls-2" d="M224.51,7h98.98c8.56,0,15.51,6.95,15.51,15.51v49.49h-130V22.51c0-8.56,6.95-15.51,15.51-15.51Z"/><polygon class="cls-3" points="209 33.39 209 29.71 337.97 29.66 337.98 33.34 209 33.39"/><path class="cls-2" d="M224.5,396.78h98.98c8.56,0,15.51,6.95,15.51,15.51v49.49h-130v-49.49c0-8.56,6.95-15.51,15.51-15.51Z" transform="translate(547.99 858.56) rotate(180)"/><polygon class="cls-3" points="338.99 435.38 339 439.06 210.02 439.12 210.01 435.44 338.99 435.38"/><path class="cls-2" d="M501.73,4.23h98.98c8.56,0,15.51,6.95,15.51,15.51v49.49h-130V19.73c0-8.56,6.95-15.51,15.51-15.51Z"/><polygon class="cls-3" points="486.23 30.62 486.22 26.94 615.19 26.89 615.2 30.57 486.23 30.62"/><path class="cls-2" d="M501.73,394.01h98.98c8.56,0,15.51,6.95,15.51,15.51v49.49h-130v-49.49c0-8.56,6.95-15.51,15.51-15.51Z" transform="translate(1102.43 853.01) rotate(180)"/><polygon class="cls-3" points="616.21 432.61 616.22 436.29 487.24 436.35 487.24 432.67 616.21 432.61"/><path class="cls-2" d="M1019.8,190.24h98.98c8.56,0,15.51,6.95,15.51,15.51v49.49h-130v-49.49c0-8.56,6.95-15.51,15.51-15.51Z" transform="translate(1292.03 -846.55) rotate(90)"/><polygon class="cls-3" points="1075.39 157.74 1079.07 157.74 1079.13 286.71 1075.45 286.72 1075.39 157.74"/><path class="cls-2" d="M-13.99,199.22h98.98c8.56,0,15.51,6.95,15.51,15.51v49.49H-29.5v-49.49c0-8.56,6.95-15.51,15.51-15.51Z" transform="translate(-196.22 267.22) rotate(-90)"/><polygon class="cls-3" points="29.39 296.71 25.71 296.72 25.66 167.75 29.34 167.74 29.39 296.71"/><path class="cls-1" d="M1036.89,94.25c0-13.55-10.98-24.53-24.53-24.53h-299.47v.51H79.55c-7.73,0-14,6.27-14,14v285.47c0,13.55,10.98,24.53,24.53,24.53h623.47v-.51h298.8c13.55,0,24.53-10.98,24.53-24.53V94.25Z"/><path class="cls-2" d="M768.5,3h98.98c8.56,0,15.51,6.95,15.51,15.51v49.49h-130V18.51c0-8.56,6.95-15.51,15.51-15.51Z"/><polygon class="cls-3" points="753 29.39 752.99 25.71 881.96 25.66 881.97 29.34 753 29.39"/><path class="cls-2" d="M768.5,396.78h98.98c8.56,0,15.51,6.95,15.51,15.51v49.49h-130v-49.49c0-8.56,6.95-15.51,15.51-15.51Z" transform="translate(1635.98 858.56) rotate(180)"/><polygon class="cls-3" points="882.98 435.38 882.99 439.06 754.02 439.12 754.01 435.44 882.98 435.38"/></g></svg>