<?xml version="1.0" encoding="UTF-8"?><svg id="Capa_2" xmlns="http://www.w3.org/2000/svg" viewBox="0 0 784 467.55"><defs><style>.cls-1{fill:var(--mesa-fill,#e8e4de);stroke:#000;stroke-width:5px;}.cls-1,.cls-2{stroke-miterlimit:10;}.cls-3{fill:#2b2b2b;}.cls-2{fill:var(--silla-fill,#707378);stroke:#2b2b2b;stroke-width:6px;}</style></defs><g id="Capa_1-2"><path class="cls-2" d="M208.51,5.77h98.98c8.56,0,15.51,6.95,15.51,15.51v49.49h-130V21.28c0-8.56,6.95-15.51,15.51-15.51Z"/><polygon class="cls-3" points="193 32.17 193 28.48 321.97 28.43 321.98 32.11 193 32.17"/><path class="cls-2" d="M208.5,399.55h98.98c8.56,0,15.51,6.95,15.51,15.51v49.49h-130v-49.49c0-8.56,6.95-15.51,15.51-15.51Z" transform="translate(515.99 864.1) rotate(180)"/><polygon class="cls-3" points="322.99 438.16 323 441.84 194.02 441.89 194.01 438.21 322.99 438.16"/><path class="cls-1" d="M392,69H82.51c-8.01,0-14.51,6.5-14.51,14.51v294.98c0,8.01,6.5,14.51,14.51,14.51h618.98c8.01,0,14.51-6.5,14.51-14.51V83.51c0-8.01-6.5-14.51-14.51-14.51h-309.49Z"/><path class="cls-2" d="M476.51,3h98.98c8.56,0,15.51,6.95,15.51,15.51v49.49h-130V18.51c0-8.56,6.95-15.51,15.51-15.51Z"/><polygon class="cls-3" points="461 29.39 461 25.71 589.97 25.66 589.98 29.34 461 29.39"/><path class="cls-2" d="M476.5,396.78h98.98c8.56,0,15.51,6.95,15.51,15.51v49.49h-130v-49.49c0-8.56,6.95-15.51,15.51-15.51Z" transform="translate(1051.99 858.56) rotate(180)"/><polygon class="cls-3" points="590.99 435.38 591 439.06 462.02 439.12 462.01 435.44 590.99 435.38"/><path class="cls-2" d="M699,198.5h98.98c8.56,0,15.51,6.95,15.51,15.51v49.49h-130v-49.49c0-8.56,6.95-15.51,15.51-15.51Z" transform="translate(979.5 -517.49) rotate(90)"/><polygon class="cls-3" points="754.6 166.01 758.28 166 758.34 294.98 754.66 294.98 754.6 166.01"/><path class="cls-2" d="M-13.99,197.99h98.98c8.56,0,15.51,6.95,15.51,15.51v49.49H-29.5v-49.49c0-8.56,6.95-15.51,15.51-15.51Z" transform="translate(-194.99 265.99) rotate(-90)"/><polygon class="cls-3" points="29.39 295.49 25.71 295.49 25.66 166.52 29.34 166.51 29.39 295.49"/></g></svg>