<?xml version="1.0" encoding="UTF-8"?>
<svg id="Capa_2" xmlns="http://www.w3.org/2000/svg" viewBox="0 0 689 329">
  <g id="Capa_1-2">
    <rect fill="var(--silla-fill,#5e4c34)" x="88.5" y="6.5" width="72" height="34" rx="9" ry="9" />
    <rect fill="var(--silla-fill,#5e4c34)" x="308.5" y="6.5" width="72" height="34" rx="9" ry="9" />
    <rect fill="var(--silla-fill,#5e4c34)" x="528.5" y="6.5" width="72" height="34" rx="9" ry="9" />
    <rect fill="var(--silla-fill,#5e4c34)" x="88.5" y="288.5" width="72" height="34" rx="9" ry="9" />
    <rect fill="var(--silla-fill,#5e4c34)" x="308.5" y="288.5" width="72" height="34" rx="9" ry="9" />
    <rect fill="var(--silla-fill,#5e4c34)" x="528.5" y="288.5" width="72" height="34" rx="9" ry="9" />
    <rect fill="var(--silla-fill,#5e4c34)" x="6.5" y="128.5" width="34" height="72" rx="9" ry="9" />
    <rect fill="var(--silla-fill,#5e4c34)" x="648.5" y="128.5" width="34" height="72" rx="9" ry="9" />
    <rect fill="var(--mesa-fill,#774f19)" style="isolation: isolate;" stroke="#71727b" stroke-width="3px" x="44.5" y="44.5" width="600" height="240" rx="24" ry="24" />
    <path fill="var(--silla-dark,#010101)" d="M82.5,16.5c0-22,84-22,84,0h-6c0-16-72-16-72,0h-6Z" />
    <path fill="var(--silla-dark,#010101)" d="M302.5,16.5c0-22,84-22,84,0h-6c0-16-72-16-72,0h-6Z" />
    <path fill="var(--silla-dark,#010101)" d="M522.5,16.5c0-22,84-22,84,0h-6c0-16-72-16-72,0h-6Z" />
    <path fill="var(--silla-dark,#010101)" d="M82.5,312.5c0,22,84,22,84,0h-6c0,16-72,16-72,0h-6Z" />
    <path fill="var(--silla-dark,#010101)" d="M302.5,312.5c0,22,84,22,84,0h-6c0,16-72,16-72,0h-6Z" />
    <path fill="var(--silla-dark,#010101)" d="M522.5,312.5c0,22,84,22,84,0h-6c0,16-72,16-72,0h-6Z" />
    <path fill="var(--silla-dark,#010101)" d="M16.5,122.5c-22,0-22,84,0,84v-6c-16,0-16-72,0-72v-6Z" />
    <path fill="var(--silla-dark,#010101)" d="M672.5,122.5c22,0,22,84,0,84v-6c16,0,16-72,0-72v-6Z" />
  </g>
</svg>