<?xml version="1.0" encoding="UTF-8"?><svg id="Capa_2" xmlns="http://www.w3.org/2000/svg" viewBox="0 0 329 464.78"><defs><style>.cls-1{fill:var(--mesa-fill,#e8e4de);stroke:#000;stroke-width:5px;}.cls-1,.cls-2{stroke-miterlimit:10;}.cls-3{fill:#2b2b2b;}.cls-2{fill:var(--silla-fill,#707378);stroke:#2b2b2b;stroke-width:6px;}</style></defs><g id="Capa_1-2"><rect class="cls-1" x="2.5" y="71.62" width="324" height="324" rx="13.96" ry="13.96"/><path class="cls-2" d="M115.01,3h98.98c8.56,0,15.51,6.95,15.51,15.51v49.49H99.5V18.51c0-8.56,6.95-15.51,15.51-15.51Z"/><polygon class="cls-3" points="99.51 29.39 99.5 25.71 228.47 25.66 228.48 29.34 99.51 29.39"/><path class="cls-2" d="M115.01,396.78h98.98c8.56,0,15.51,6.95,15.51,15.51v49.49H99.5v-49.49c0-8.56,6.95-15.51,15.51-15.51Z" transform="translate(329 858.56) rotate(180)"/><polygon class="cls-3" points="229.49 435.38 229.5 439.06 100.53 439.12 100.52 435.44 229.49 435.38"/></g></svg>