<?xml version="1.0" encoding="UTF-8"?><svg id="Capa_2" xmlns="http://www.w3.org/2000/svg" viewBox="0 0 329 431.57"><defs><style>.cls-1{fill:var(--mesa-fill,#e8e4de);stroke:#000;stroke-width:5px;}.cls-1,.cls-2{stroke-miterlimit:10;}.cls-3{fill:#2b2b2b;}.cls-2{fill:var(--silla-fill,#707378);stroke:#2b2b2b;stroke-width:6px;}</style></defs><g id="Capa_1-2"><path class="cls-2" d="M119.31,3h89.57c8.56,0,15.51,6.95,15.51,15.51v44.79h-120.59V18.51c0-8.56,6.95-15.51,15.51-15.51Z"/><polygon class="cls-3" points="103.81 27.48 103.8 24.07 223.44 24.02 223.45 27.43 103.81 27.48"/><path class="cls-2" d="M119.31,368.27h89.57c8.56,0,15.51,6.95,15.51,15.51v44.79h-120.59v-44.79c0-8.56,6.95-15.51,15.51-15.51Z" transform="translate(328.19 796.84) rotate(180)"/><polygon class="cls-3" points="224.38 404.09 224.39 407.5 104.75 407.55 104.74 404.14 224.38 404.09"/><rect class="cls-1" x="2.5" y="53.78" width="324" height="324" rx="162" ry="162"/></g></svg>