<?xml version="1.0" encoding="UTF-8"?><svg id="Capa_2" xmlns="http://www.w3.org/2000/svg" viewBox="0 0 460.53 464.78"><defs><style>.cls-1{fill:var(--mesa-fill,#e8e4de);stroke:#000;stroke-width:5px;}.cls-1,.cls-2{stroke-miterlimit:10;}.cls-3{fill:#2b2b2b;}.cls-2{fill:var(--silla-fill,#707378);stroke:#2b2b2b;stroke-width:6px;}</style></defs><g id="Capa_1-2"><rect class="cls-1" x="67.83" y="71.62" width="324" height="324" rx="13.96" ry="13.96"/><path class="cls-2" d="M180.34,3h98.98c8.56,0,15.51,6.95,15.51,15.51v49.49h-130V18.51c0-8.56,6.95-15.51,15.51-15.51Z"/><polygon class="cls-3" points="164.84 29.39 164.83 25.71 293.8 25.66 293.81 29.34 164.84 29.39"/><path class="cls-2" d="M180.34,396.78h98.98c8.56,0,15.51,6.95,15.51,15.51v49.49h-130v-49.49c0-8.56,6.95-15.51,15.51-15.51Z" transform="translate(459.66 858.56) rotate(180)"/><polygon class="cls-3" points="294.82 435.38 294.83 439.06 165.86 439.12 165.85 435.44 294.82 435.38"/><path class="cls-2" d="M-13.99,201.11h98.98c8.56,0,15.51,6.95,15.51,15.51v49.49H-29.5v-49.49c0-8.56,6.95-15.51,15.51-15.51Z" transform="translate(-198.11 269.11) rotate(-90)"/><polygon class="cls-3" points="29.39 298.61 25.71 298.62 25.66 169.64 29.34 169.64 29.39 298.61"/><path class="cls-2" d="M375.54,201.12h98.98c8.56,0,15.51,6.95,15.51,15.51v49.49h-130v-49.49c0-8.56,6.95-15.51,15.51-15.51Z" transform="translate(658.65 -191.41) rotate(90)"/><polygon class="cls-3" points="431.14 168.62 434.82 168.62 434.87 297.59 431.19 297.6 431.14 168.62"/></g></svg>