<?xml version="1.0" encoding="UTF-8"?><svg id="Capa_2" xmlns="http://www.w3.org/2000/svg" viewBox="0 0 427.63 431.57"><defs><style>.cls-1{fill:var(--mesa-fill,#e8e4de);stroke:#000;stroke-width:5px;}.cls-1,.cls-2{stroke-miterlimit:10;}.cls-3{fill:#2b2b2b;}.cls-2{fill:var(--silla-fill,#707378);stroke:#2b2b2b;stroke-width:6px;}</style></defs><g id="Capa_1-2"><path class="cls-2" d="M168.63,3h89.57c8.56,0,15.51,6.95,15.51,15.51v44.79h-120.59V18.51c0-8.56,6.95-15.51,15.51-15.51Z"/><polygon class="cls-3" points="153.12 27.48 153.12 24.07 272.76 24.02 272.76 27.43 153.12 27.48"/><path class="cls-2" d="M168.62,368.27h89.57c8.56,0,15.51,6.95,15.51,15.51v44.79h-120.59v-44.79c0-8.56,6.95-15.51,15.51-15.51Z" transform="translate(426.82 796.84) rotate(180)"/><polygon class="cls-3" points="273.7 404.09 273.71 407.5 154.07 407.55 154.06 404.14 273.7 404.09"/><path class="cls-2" d="M-11.64,186.77h89.57c8.56,0,15.51,6.95,15.51,15.51v44.79H-27.15v-44.79c0-8.56,6.95-15.51,15.51-15.51Z" transform="translate(-183.77 250.07) rotate(-90)"/><polygon class="cls-3" points="27.48 277.21 24.07 277.22 24.02 157.58 27.43 157.57 27.48 277.21"/><path class="cls-2" d="M349.7,186.78h89.57c8.56,0,15.51,6.95,15.51,15.51v44.79h-120.59v-44.79c0-8.56,6.95-15.51,15.51-15.51Z" transform="translate(611.41 -177.56) rotate(90)"/><polygon class="cls-3" points="400.15 156.64 403.56 156.63 403.61 276.27 400.2 276.27 400.15 156.64"/><rect class="cls-1" x="51.82" y="53.78" width="324" height="324" rx="162" ry="162"/></g></svg>