<?xml version="1.0" encoding="UTF-8"?><svg id="Capa_2" xmlns="http://www.w3.org/2000/svg" viewBox="0 0 772 769.21"><defs><style>.cls-1{fill:var(--mesa-fill,#e8e4de);stroke:#000;stroke-width:5px;}.cls-1,.cls-2{stroke-miterlimit:10;}.cls-3{fill:#2b2b2b;}.cls-2{fill:var(--silla-fill,#707378);stroke:#2b2b2b;stroke-width:6px;}</style></defs><g id="Capa_1-2"><path class="cls-2" d="M72,114.95h128.57c8.56,0,15.51,6.95,15.51,15.51v64.29H56.5v-64.29c0-8.56,6.95-15.51,15.51-15.51Z" transform="translate(-69.86 147.4) rotate(-46.58)"/><polygon class="cls-3" points="76 207.65 72.71 204.55 181.5 89.5 184.78 92.6 76 207.65"/><path class="cls-2" d="M568.37,584.71h128.57c8.56,0,15.51,6.95,15.51,15.51v64.29h-159.59v-64.29c0-8.56,6.95-15.51,15.51-15.51Z" transform="translate(1521.18 594.45) rotate(133.42)"/><polygon class="cls-3" points="692.94 571.81 696.23 574.91 587.45 689.96 584.16 686.86 692.94 571.81"/><path class="cls-2" d="M85.81,599.67h128.57c8.56,0,15.51,6.95,15.51,15.51v64.29H70.3v-64.29c0-8.56,6.95-15.51,15.51-15.51Z" transform="translate(-180.52 1207.26) rotate(-136.58)"/><polygon class="cls-3" points="202.89 699.86 199.79 703.15 84.75 594.36 87.85 591.08 202.89 699.86"/><path class="cls-2" d="M557.49,101.28h128.57c8.56,0,15.51,6.95,15.51,15.51v64.29h-159.59v-64.29c0-8.56,6.95-15.51,15.51-15.51Z" transform="translate(267.22 -388.75) rotate(43.42)"/><polygon class="cls-3" points="568.98 80.89 572.08 77.6 687.12 186.39 684.02 189.68 568.98 80.89"/><path class="cls-2" d="M321.18,3h128.57c8.56,0,15.51,6.95,15.51,15.51v64.29h-159.59V18.51c0-8.56,6.95-15.51,15.51-15.51Z"/><polygon class="cls-3" points="305.68 35.4 305.67 30.88 464 30.82 464.01 35.33 305.68 35.4"/><path class="cls-2" d="M321.17,686.41h128.57c8.56,0,15.51,6.95,15.51,15.51v64.29h-159.59v-64.29c0-8.56,6.95-15.51,15.51-15.51Z" transform="translate(770.92 1452.62) rotate(180)"/><polygon class="cls-3" points="465.25 733.81 465.26 738.33 306.93 738.39 306.92 733.88 465.25 733.81"/><path class="cls-2" d="M-21.39,346.21H107.18c8.56,0,15.51,6.95,15.51,15.51v64.29H-36.9v-64.29c0-8.56,6.95-15.51,15.51-15.51Z" transform="translate(-343.21 429.01) rotate(-90)"/><polygon class="cls-3" points="35.4 465.9 30.88 465.91 30.82 307.58 35.33 307.57 35.4 465.9"/><path class="cls-2" d="M664.81,346.22h128.57c8.56,0,15.51,6.95,15.51,15.51v64.29h-159.59v-64.29c0-8.56,6.95-15.51,15.51-15.51Z" transform="translate(1115.22 -342.99) rotate(90)"/><polygon class="cls-3" points="736.6 306.33 741.12 306.32 741.18 464.65 736.67 464.66 736.6 306.33"/><rect class="cls-1" x="63" y="61.61" width="646" height="646" rx="323" ry="323"/></g></svg>