<?xml version="1.0" encoding="UTF-8"?><svg id="Capa_2" xmlns="http://www.w3.org/2000/svg" viewBox="0 0 135.51 134.62"><defs><style>.cls-1{fill:#679382;}.cls-2{fill:#497465;}</style></defs><g id="landscape_design_top_view_flat"><path class="cls-1" d="M130.19,46.16c-.87,3.92,3.16,7.74,2.2,11.64-.48,1.94-2.09,3.35-3.19,5.02-2.25,3.41-2.22,8.18.06,11.57,1.58,2.34,4.27,4.63,3.53,7.36-.61,2.25-3.27,3.25-4.53,5.21-1.25,1.92-.97,4.42-.49,6.66.48,2.24,1.1,4.59.43,6.77-.68,2.19-1.34,5.24-3.3,4.06-4.17,1.29-7.92,3.84-10.64,7.25-2.96,3.69-5.63,8.88-10.36,8.89-2.94,0-6.12-2.13-8.58-.51-3.19,2.11-.77,7.26-2.16,10.82-1.29,3.29-5.63,4.33-9.04,3.42-3.4-.91-6.25-3.19-9.37-4.83-3.12-1.65-7.04-2.62-10.09-.85.41,2.54-2.63,4.52-5.17,4.13-2.54-.39-4.57-2.25-6.5-3.95-1.93-1.7-3.87-3.51-6.44-3.44-4.98,3.21-11.92,3.03-16.73-.43-1.76-1.27-3.29-2.94-5.36-3.59-4.77-1.49-10.8,2.93-14.51-.43-2.55-2.31-1.67-6.39-1.83-9.82-.37-7.89-7.26-14.56-7.92-22.19-.07-.81-.07-1.62.01-2.45.37-3.68,2.4-7.06,2.64-10.75.43-6.56-4.77-13.26-2.07-19.24,1.63-3.6,5.73-5.66,7.16-9.35,1.3-3.35.05-7.05-.68-10.57-.74-3.51-.65-7.81,2.29-9.87,1.32-.92,2.97-1.19,4.45-1.83,4.39-1.89,6.65-6.63,9.04-10.77,2.39-4.14,6.08-8.43,10.86-8.21,2.43.12,4.74,1.44,7.17,1.23,3.21-.28,5.52-3.05,8.14-4.94,2.62-1.89,8.69-3.46,10.13-.57,2.09.67,3.27,3.07,5.39,3.67,3.22.92,5.83-2.72,9-3.77,3.42-1.13,7.05.9,9.9,3.09.08.06.16.13.25.19,2.78,2.15,5.68,4.59,9.18,4.71,4.94.18,9.68-4.35,14.32-2.65,2.72,1,4.25,3.79,5.83,6.22,1.58,2.43,3.92,4.92,6.81,4.68,2.88-.25,6.89,1.86,6.52,4.72-.12.95-.56,1.83-.69,2.77-.48,3.57,3.33,6.03,6.52,7.7,1.05.54,2.15,1.16,2.73,2.2,1.03,1.85-.03,4.18-1.39,5.82-1.35,1.63-3.06,3.15-3.52,5.22Z"/><path class="cls-2" d="M130.19,46.16c-.87,3.92,3.16,7.74,2.2,11.64-.48,1.94-2.09,3.35-3.19,5.02-2.25,3.41-2.22,8.18.06,11.57,1.58,2.34,4.27,4.63,3.53,7.36-.61,2.25-3.27,3.25-4.53,5.21-1.25,1.92-.97,4.42-.49,6.66.48,2.24,1.1,4.59.43,6.77-.68,2.19-1.34,5.24-3.3,4.06-4.17,1.29-7.92,3.84-10.64,7.25-2.96,3.69-5.63,8.88-10.36,8.89-2.94,0-6.12-2.13-8.58-.51-3.19,2.11-.77,7.26-2.16,10.82-1.29,3.29-5.63,4.33-9.04,3.42-3.4-.91-6.25-3.19-9.37-4.83-3.12-1.65-7.04-2.62-10.09-.85.41,2.54-2.63,4.52-5.17,4.13-2.54-.39-4.57-2.25-6.5-3.95-1.93-1.7-3.87-3.51-6.44-3.44-4.98,3.21-11.92,3.03-16.73-.43-1.76-1.27-3.29-2.94-5.36-3.59-4.77-1.49-10.8,2.93-14.51-.43-2.55-2.31-1.67-6.39-1.83-9.82-.37-7.89-7.26-14.56-7.92-22.19,2.58,1.85,5.69,2.93,8.87,2.87-1,3.64,1.83,7.83,5.58,8.27,1.97.23,4.4-.3,5.16,2.26.28.92.17,1.91-.08,2.84-.43,1.6.3,4.28,2.08,4.11,8.44.07,6.03,7.07,12.79,4.9,2.43-.73,4.22-2.65,5.83-4.92,2.8-3.95,8.07-5.06,12.37-2.84.02.01.05.03.07.04,2.56,1.29,5.9,1.45,8.11-.37.92-.76,1.61-1.83,2.69-2.35,3.75-1.81,7.34,4.22,11.46,3.59,1.8-.28,3.13-1.76,4.3-3.16,3.23-3.86,6.46-7.72,9.69-11.57,1.25-1.5,2.56-3.11,2.84-5.05.34-2.43-.92-5.31.7-7.15,1.16-1.32,3.19-1.32,4.79-2.04,1.61-.72,2.93-3.49,1.56-4.62-1.12-.92-1.97-2.13-2.14-3.57-.6-5.05,3.49-7.07,6.44-9.79.63-.58,1.27-1.34,1.16-2.19-.08-.61-.52-1.1-.96-1.55-1.6-1.69-3.2-3.37-4.81-5.05,1.46-2.79,4.92-3.68,7.8-4.95,2.89-1.26,5.86-4.18,4.7-7.1-.65-1.64-2.38-2.58-3.32-4.07-2.74-4.33,1.95-11.52-3.9-14.08-1.5-.66-3.22-.64-4.77-.09-2.79.99-7.9,2.12-9.86-.91-1.13-1.76-.58-4.04-.59-6.14-.01-3.64-2-7.21-5.08-9.16.06-.1.13-.2.19-.3,2.78,2.15,5.68,4.59,9.18,4.71,4.94.18,9.68-4.35,14.32-2.65,2.72,1,4.25,3.79,5.83,6.22,1.58,2.43,3.92,4.92,6.81,4.68,2.88-.25,6.89,1.86,6.52,4.72-.12.95-.56,1.83-.69,2.77-.48,3.57,3.33,6.03,6.52,7.7,1.05.54,2.15,1.16,2.73,2.2,1.03,1.85-.03,4.18-1.39,5.82-1.35,1.63-3.06,3.15-3.52,5.22Z"/><path class="cls-2" d="M46.07,83.73c-2.58-1.14-5.02-2.84-6.79-5.06-.41-.52-.87-1.17-.85-1.86.02-.71.55-1.33.84-1.94.58-1.23.68-2.54.38-3.86-.3-1.35-.98-2.61-1.62-3.83-.33-.63-.68-1.27-.98-1.92-.26-.55-.7-1.36-.4-1.98.23-.49.83-.77,1.26-1.04.52-.32,1.02-.64,1.43-1.09.79-.9,1.22-2.19.49-3.26-.7-1.02-2.38-.06-1.67.98.52.75-.91,1.51-1.41,1.82-.78.49-1.55,1.05-1.91,1.92-.86,2.08,1.06,4.61,1.95,6.39.47.94.94,1.94,1.07,2.99.15,1.21-.39,2.05-.9,3.09-1.11,2.29.16,4.21,1.73,5.86,1.81,1.89,3.99,3.42,6.38,4.47,1.13.5,2.12-1.17.98-1.67h0Z"/><path class="cls-2" d="M68.7,50.56c3.96,2.28,7.91,4.57,11.87,6.85,1.74,1.01,3.67,1.92,5.02,3.46,1.28,1.46,1.93,3.36,1.92,5.28,0,1.25,1.93,1.25,1.94,0,0-2.04-.59-4.08-1.77-5.74-1.29-1.82-3.13-2.94-5.03-4.03-4.32-2.5-8.65-4.99-12.97-7.49-1.08-.62-2.06,1.05-.98,1.67h0Z"/></g></svg>
